Coordinates
version=1
nRows=14
nColumns=40
inDegrees=yes

Units are S.I. units (second, meters, Newtons, ...)
If the header above contains a line with 'inDegrees', this indicates whether rotational values are in degrees (yes) or radians (no).

endheader
time	pelvis_tilt	pelvis_list	pelvis_rotation	pelvis_tx	pelvis_ty	pelvis_tz	hip_flexion_r	hip_adduction_r	hip_rotation_r	knee_angle_r	knee_angle_r_beta	ankle_angle_r	subtalar_angle_r	mtp_angle_r	hip_flexion_l	hip_adduction_l	hip_rotation_l	knee_angle_l	knee_angle_l_beta	ankle_angle_l	subtalar_angle_l	mtp_angle_l	lumbar_extension	lumbar_bending	lumbar_rotation	arm_flex_r	arm_add_r	arm_rot_r	elbow_flex_r	pro_sup_r	wrist_flex_r	wrist_dev_r	arm_flex_l	arm_add_l	arm_rot_l	elbow_flex_l	pro_sup_l	wrist_flex_l	wrist_dev_l
      7.72500000	     -3.92059313	     29.26774681	    -87.76237976	      1.22778157	      0.61687682	      0.11681645	     95.28428046	     -8.89985407	     -2.94191258	     95.58603724	      1.66829107	     22.71599617	    -21.31455640	      0.00000000	     95.97501960	     -9.41296437	      0.41907379	     97.94820168	      1.70951862	     27.02551868	    -12.52049902	      0.00000000	    -24.88972954	      6.91644895	     -1.23625836	     44.99992434	    -14.99999999	     44.99992434	     75.00017585	     45.00000026	      0.00000000	      0.00000000	     44.99992434	    -14.99999999	     44.99992434	     75.00017585	     45.00000026	      0.00000000	      0.00000000
      7.73000000	     -3.96961360	     29.33946364	    -87.70598914	      1.22791754	      0.61659081	      0.11668338	     95.38398892	     -8.93231443	     -2.96562111	     95.60861469	      1.66868512	     22.65242050	    -21.41621772	      0.00000000	     96.09657719	     -9.36913693	      0.46706897	     97.96941245	      1.70988881	     27.00775735	    -12.46907188	      0.00000000	    -24.76978229	      6.87208308	     -1.52478158	     44.99992434	    -14.99999999	     44.99992434	     75.00017585	     45.00000026	      0.00000000	      0.00000000	     44.99992434	    -14.99999999	     44.99992434	     75.00017585	     45.00000026	      0.00000000	      0.00000000
      7.73500000	     -3.89918277	     29.29278253	    -87.75107114	      1.22787182	      0.61675649	      0.11665930	     95.34186452	     -8.91349721	     -2.89492146	     95.59490670	      1.66844587	     22.67950137	    -21.38599957	      0.00000000	     96.01037592	     -9.40607821	      0.37496347	     97.94161185	      1.70940360	     27.01260132	    -12.46270324	      0.00000000	    -24.86377571	      6.73820773	     -1.59065864	     44.99992434	    -14.99999999	     44.99992434	     75.00017585	     45.00000026	      0.00000000	      0.00000000	     44.99992434	    -14.99999999	     44.99992434	     75.00017585	     45.00000026	      0.00000000	      0.00000000
      7.74000000	     -4.38193238	     29.45179869	    -87.20120664	      1.22913719	      0.61617353	      0.11643045	     95.43013684	     -9.33593195	     -3.30088361	     95.60312762	      1.66858935	     22.65661411	    -21.38953498	      0.00000000	     96.38886236	     -8.92111127	      0.84010369	     97.97709716	      1.71002294	     26.78964874	    -12.81529244	      0.00000000	    -24.55010794	      7.26850754	     -2.15089956	     44.99992434	    -14.99999999	     44.99992434	     75.00017585	     45.00000026	      0.00000000	      0.00000000	     44.99992434	    -14.99999999	     44.99992434	     75.00017585	     45.00000026	      0.00000000	      0.00000000
      7.74500000	     -3.89146394	     29.28013674	    -87.76321895	      1.22784320	      0.61678951	      0.11654944	     95.33212228	     -8.88649937	     -2.87010517	     95.58283149	      1.66823512	     22.66243249	    -21.41369382	      0.00000000	     96.00137711	     -9.45382081	      0.33547895	     97.93254493	      1.70924535	     27.00043417	    -12.41775788	      0.00000000	    -24.91965103	      6.81962799	     -1.40520090	     44.99992434	    -14.99999999	     44.99992434	     75.00017585	     45.00000026	      0.00000000	      0.00000000	     44.99992434	    -14.99999999	     44.99992434	     75.00017585	     45.00000026	      0.00000000	      0.00000000
      7.75000000	     -3.88205417	     29.28842694	    -87.74533333	      1.22791009	      0.61675934	      0.11648907	     95.35405718	     -8.91171323	     -2.85292410	     95.58870076	      1.66833756	     22.67337498	    -21.40930949	      0.00000000	     96.00686549	     -9.43740780	      0.30914176	     97.92225347	      1.70906573	     26.99633933	    -12.41018784	      0.00000000	    -24.90148369	      6.79298618	     -1.43645913	     44.99992434	    -14.99999999	     44.99992434	     75.00017585	     45.00000026	      0.00000000	      0.00000000	     44.99992434	    -14.99999999	     44.99992434	     75.00017585	     45.00000026	      0.00000000	      0.00000000
      7.75500000	     -3.94532835	     29.31757922	    -87.69654397	      1.22797533	      0.61666225	      0.11641340	     95.38091043	     -8.92815069	     -2.91064546	     95.58374571	      1.66825107	     22.62468540	    -21.50943962	      0.00000000	     96.07123622	     -9.42993812	      0.35698894	     97.92750977	      1.70915747	     26.97616418	    -12.37524207	      0.00000000	    -24.85940788	      6.72155676	     -1.70796389	     44.99992434	    -14.99999999	     44.99992434	     75.00017585	     45.00000026	      0.00000000	      0.00000000	     44.99992434	    -14.99999999	     44.99992434	     75.00017585	     45.00000026	      0.00000000	      0.00000000
      7.76000000	     -3.95694827	     29.32569508	    -87.65586636	      1.22806079	      0.61662291	      0.11636463	     95.39639671	     -8.97367596	     -2.91971029	     95.59355003	      1.66842219	     22.62448990	    -21.50018110	      0.00000000	     96.08665866	     -9.40047710	      0.35503630	     97.92360332	      1.70908929	     26.98188226	    -12.33743620	      0.00000000	    -24.84307716	      6.71355780	     -1.72754162	     44.99992434	    -14.99999999	     44.99992434	     75.00017585	     45.00000026	      0.00000000	      0.00000000	     44.99992434	    -14.99999999	     44.99992434	     75.00017585	     45.00000026	      0.00000000	      0.00000000
      7.76500000	     -4.26495586	     29.34792959	    -87.50705575	      1.22813248	      0.61657831	      0.11631962	     95.33957232	     -8.95491144	     -3.22118882	     95.54582602	      1.66758925	     22.51367737	    -21.73588503	      0.00000000	     96.22761843	     -9.42203603	      0.64118633	     97.95570452	      1.70964956	     26.88740436	    -12.38733741	      0.00000000	    -24.81364934	      6.92045374	     -1.86630096	     44.99992434	    -14.99999999	     44.99992434	     75.00017585	     45.00000026	      0.00000000	      0.00000000	     44.99992434	    -14.99999999	     44.99992434	     75.00017585	     45.00000026	      0.00000000	      0.00000000
      7.77000000	     -3.95669725	     29.33710657	    -87.64170976	      1.22806220	      0.61659822	      0.11626148	     95.41790286	     -8.97794840	     -2.90701659	     95.59019028	      1.66836355	     22.59011588	    -21.56782957	      0.00000000	     96.10551144	     -9.41642604	      0.32570109	     97.91444179	      1.70892939	     26.96007233	    -12.30089402	      0.00000000	    -24.85060529	      6.68457892	     -1.76374350	     44.99992434	    -14.99999999	     44.99992434	     75.00017585	     45.00000026	      0.00000000	      0.00000000	     44.99992434	    -14.99999999	     44.99992434	     75.00017585	     45.00000026	      0.00000000	      0.00000000
      7.77500000	     -3.87314680	     29.30425202	    -87.69284908	      1.22800428	      0.61673863	      0.11626405	     95.39805770	     -8.96039874	     -2.81207119	     95.58855751	      1.66833506	     22.63605322	    -21.47978903	      0.00000000	     96.02563276	     -9.44847258	      0.22297774	     97.89262264	      1.70854858	     26.98240462	    -12.33971298	      0.00000000	    -24.93821258	      6.65561304	     -1.62796293	     44.99992434	    -14.99999999	     44.99992434	     75.00017585	     45.00000026	      0.00000000	      0.00000000	     44.99992434	    -14.99999999	     44.99992434	     75.00017585	     45.00000026	      0.00000000	      0.00000000
      7.78000000	     -3.85257104	     29.24777006	    -87.69486710	      1.22799123	      0.61690326	      0.11626621	     95.33234792	     -8.98069946	     -2.82106584	     95.58397594	      1.66825509	     22.60710351	    -21.49957644	      0.00000000	     95.95284770	     -9.46404125	      0.18344611	     97.88046578	      1.70833640	     26.98428604	    -12.29975564	      0.00000000	    -25.01861513	      6.56618150	     -1.69893573	     44.99992434	    -14.99999999	     44.99992434	     75.00017585	     45.00000026	      0.00000000	      0.00000000	     44.99992434	    -14.99999999	     44.99992434	     75.00017585	     45.00000026	      0.00000000	      0.00000000
      7.78500000	     -3.98412239	     29.38146600	    -87.58325213	      1.22814609	      0.61642005	      0.11609616	     95.49204110	     -9.03062800	     -2.92128382	     95.60878541	      1.66868810	     22.54097480	    -21.57671724	      0.00000000	     96.18623877	     -9.39650891	      0.31860643	     97.92124087	      1.70904806	     26.96013042	    -12.25668135	      0.00000000	    -24.80141496	      6.70167643	     -1.68753539	     44.99992434	    -14.99999999	     44.99992434	     75.00017585	     45.00000026	      0.00000000	      0.00000000	     44.99992434	    -14.99999999	     44.99992434	     75.00017585	     45.00000026	      0.00000000	      0.00000000
      7.79000000	     -3.92897011	     29.33045276	    -87.61318561	      1.22807366	      0.61662136	      0.11611187	     95.43214689	     -9.02722032	     -2.87852210	     95.59650004	      1.66847368	     22.58531075	    -21.49042334	      0.00000000	     96.09360320	     -9.42271784	      0.25395266	     97.89471441	      1.70858509	     26.97010069	    -12.21932199	      0.00000000	    -24.89654385	      6.75182000	     -1.51638638	     44.99992434	    -14.99999999	     44.99992434	     75.00017585	     45.00000026	      0.00000000	      0.00000000	     44.99992434	    -14.99999999	     44.99992434	     75.00017585	     45.00000026	      0.00000000	      0.00000000
